<svg width="46" height="46" viewBox="0 0 46 46" fill="none" xmlns="http://www.w3.org/2000/svg">
<path fill-rule="evenodd" clip-rule="evenodd" d="M18.3149 11.342C18.6078 11.0491 18.6078 10.5742 18.3149 10.2813C18.022 9.98845 17.5471 9.98845 17.2542 10.2813L4.90571 22.6298C4.76505 22.7705 4.68604 22.9613 4.68604 23.1602C4.68604 23.3591 4.76505 23.5499 4.90571 23.6905L17.2542 36.039C17.5471 36.3319 18.022 36.3319 18.3149 36.039C18.6078 35.7461 18.6078 35.2712 18.3149 34.9783L7.24615 23.9096H40.0197C40.4339 23.9096 40.7697 23.5738 40.7697 23.1596C40.7697 22.7454 40.4339 22.4096 40.0197 22.4096H7.24724L18.3149 11.342Z" fill="#101a36"/>
</svg>
